# xmcd
#
# Track frame offsets:
# 150
# 18867
# 30239
# 45237
# 60400
# 66770
# 83747
# 102550
# 121572
# 140714
# 158430
# 176959
# 195419
# 212621
# 233048
# 252245
#
# Disc length: 3439 seconds
#
#
# Revision: 0
# Processed by: cddbd v1.5.2PL0 Copyright (c) Steve Scherf et al.
# Submitted via: FreeRIP 2.96 
#
DISCID=c20d6d10
DTITLE=Faith Hill - Breathe
DYEAR=1900
DGENRE=Pop
TTITLE0=Faith Hill - Breathe - What's int it for me
TTITLE1=Faith Hill - Breathe - I got my baby
TTITLE2=Faith Hill - Breathe - Love is a sweet thing
TTITLE3=Faith Hill - Breathe - Breathe
TTITLE4=Faith Hill - Breathe - Let's make love (with Tim McGraw)
TTITLE5=Faith Hill - Breathe - It will be me
TTITLE6=Faith Hill - Breathe - The way you love me
TTITLE7=Faith Hill - Breathe - If i'm not in love
TTITLE8=Faith Hill - Breathe - Bringing out the elvis
TTITLE9=Faith Hill - Breathe - If my heart had wings
TTITLE10=Faith Hill - Breathe - If i should fall behind
TTITLE11=Faith Hill - Breathe - That's how love moves
TTITLE12=Faith Hill - Breathe - There will come a day
TTITLE13=Faith Hill - Breathe - This kiss (Radio version)
TTITLE14=Faith Hill - Breathe - Breathe (Hex hector radio edit #1)
TTITLE15=Faith Hill - Breathe - The way you love me (Love to infinity edit)
EXTD=
EXTT0=
EXTT1=
EXTT2=
EXTT3=
EXTT4=
EXTT5=
EXTT6=
EXTT7=
EXTT8=
EXTT9=
EXTT10=
EXTT11=
EXTT12=
EXTT13=
EXTT14=
EXTT15=
PLAYORDER=
